<svg width="150" height="35" viewBox="0 0 150 35" fill="none" xmlns="http://www.w3.org/2000/svg">
<g clip-path="url(#clip0)">
<path d="M0 34.4305H34.4305V0H0V34.4305ZM22.0817 2.63944C28.1618 4.64258 32.5688 10.3928 32.5924 17.2271C32.6159 23.9434 28.3032 29.6936 22.0817 31.8146V2.63944ZM17.2035 1.86175C18.3111 1.86175 19.4659 2.00314 20.4556 2.19168C20.4556 9.99212 12.9144 16.4022 5.11391 16.4022H1.86175C2.40377 8.4132 9.02594 1.86175 17.2035 1.86175ZM5.13747 18.0283C12.9144 18.0283 20.4556 24.4384 20.4556 32.2388C19.4894 32.4274 18.2404 32.5924 17.2035 32.5924C9.00238 32.5924 2.16811 25.9938 1.86175 18.0283H5.13747Z" fill="white"/>
<path d="M45.9545 20.2442V18.076H53.1186V15.3188H45.9545V11.2889H53.5664V8.50806H43.0087V14.4468V20.1263C43.0087 23.0485 44.2577 25.0752 47.18 25.4759C47.2506 25.4995 47.2978 25.4995 47.3449 25.4995H47.3921C47.6984 25.523 48.0048 25.5466 48.3111 25.5466H53.7314V22.7893H48.3347C47.4628 22.7893 45.9545 22.3415 45.9545 20.2442Z" fill="white"/>
<path d="M55.876 16.5677V25.5466H58.7982V16.4971V8.50806H55.876V16.5677Z" fill="white"/>
<path d="M67.2114 12.844C63.5115 12.844 60.7307 15.3892 60.7307 19.3719V19.4662C60.7307 23.3547 63.4172 25.8527 67.2821 25.8527C69.1439 25.8527 70.8878 25.3342 72.4903 23.6375L70.7229 21.9171C69.7801 22.8598 68.8846 23.3311 67.3764 23.3311C65.1847 23.3311 63.7471 22.0585 63.6529 20.0789H73.2915C73.3387 19.584 73.3387 19.042 73.3387 19.042C73.3387 15.6249 70.9113 12.844 67.2114 12.844ZM63.7236 18.0522C63.8415 16.544 65.3732 15.342 67.2114 15.342C68.9318 15.342 70.3222 16.5675 70.3222 18.0522H63.7236Z" fill="white"/>
<path d="M81.587 15.4599C82.9067 15.4599 83.8964 15.9548 84.7213 16.8032L86.5359 14.9179C85.1219 13.3861 83.4251 12.7734 81.5634 12.7734C77.8399 12.7734 74.8234 15.5543 74.8234 19.3248C74.8234 23.0955 77.8163 25.8763 81.5634 25.8763C83.4015 25.8763 85.0983 25.2636 86.5359 23.7318L84.7213 21.8465C83.8964 22.6949 82.9067 23.1898 81.587 23.1898C79.4188 23.1898 77.7692 21.5401 77.7692 19.3013C77.7692 17.0625 79.4188 15.4599 81.587 15.4599Z" fill="white"/>
<path d="M91.2962 20.2442V15.8844H93.9591V13.2213H91.2962V8.50806H88.3738V14.6117V20.4091C88.4683 23.1663 89.7177 25.0752 92.5456 25.4523C92.6162 25.4759 92.663 25.4759 92.7106 25.4759H92.7574C93.0635 25.4995 93.3697 25.523 93.6768 25.523H93.983V22.7657H93.6768C92.7812 22.7893 91.2962 22.3415 91.2962 20.2442Z" fill="white"/>
<path d="M99.3326 15.0592V13.221H96.4341V19.254V25.5463H99.3326V19.0655C99.3326 17.0388 100.629 15.7662 102.656 15.7662C103.127 15.7662 103.527 15.8133 103.88 15.8841V13.056C103.763 13.0325 103.315 12.9854 103.008 12.9854C101.241 12.9854 99.9211 13.7866 99.3326 15.0592Z" fill="white"/>
<path d="M111.069 12.8682C107.321 12.8682 104.352 15.6961 104.352 19.3961C104.352 23.096 107.345 25.9239 111.069 25.9239C114.792 25.9239 117.785 23.096 117.785 19.3961C117.785 15.6961 114.792 12.8682 111.069 12.8682ZM111.069 23.261C108.9 23.261 107.251 21.5642 107.251 19.3961C107.251 17.228 108.877 15.5312 111.069 15.5312C113.213 15.5312 114.886 17.228 114.886 19.3961C114.886 21.5642 113.213 23.261 111.069 23.261Z" fill="white"/>
<path d="M119.599 16.285V25.5466H122.522V16.4028V8.50806H119.599V16.285Z" fill="white"/>
<path d="M133.103 20.3862C133.103 22.3422 131.949 23.167 130.417 23.167C128.885 23.167 127.73 22.3422 127.73 20.4098V13.2456H124.761V16.8041V20.669C124.761 24.1804 127.33 25.8772 130.393 25.8772C133.481 25.8772 136.073 24.1569 136.073 20.5983V16.8041V13.2456H133.127V20.3862H133.103Z" fill="white"/>
<path d="M147.172 21.6117L145.31 19.0194L147.62 15.9086L149.576 13.2456H146.371L143.708 16.922L141.021 13.2456H137.84L139.654 15.7201L142.106 19.0429L139.537 22.6015L137.416 25.5473H140.574L143.708 21.211L146.842 25.5473H150L147.172 21.6117Z" fill="white"/>
</g>
<defs>
<clipPath id="clip0">
<rect width="150" height="34.4538" fill="white"/>
</clipPath>
</defs>
</svg>
